PathFileType	4	(X/Y/Z)	P:\Projects\LMB_grand_challenge_database\project_only\opensim\experimental_data\SixthCompetition/DM_ngait_og9_new.trc
DataRate	CameraRate	NumFrames	NumMarkers	Units	OrigDataRate	OrigDataStartFrame	OrigNumFrames
120	120	7	68	mm	120	46	369
Frame#	Time	Sternum			Neck			R_Shoulder			L_Shoulder			Xiphoid			Thoracic			R_Asis			L_Asis			R_Psis			L_Psis			Lumbar			R_Elbow			R_ElbowMedial			R_ShoulderAnterior			R_ShoulderPosterior			R_Wrist			R_Radius			R_Ulna			L_Elbow			L_ElbowMedial			L_ShoulderAnterior			L_ShoulderPosterior			L_Wrist			L_Ulna			L_Radius			L_Thigh_Superior			L_Thigh_Inferior			L_Thigh_Lateral			L_Knee_Lateral			L_Knee_Medial			L_Patella			L_Shank_Superior			L_Shank_Inferior			L_Shank_Lateral			L_Ankle_Lateral			L_Ankle_Medial			R_Thigh_Superior			R_Thigh_Inferior			R_Thigh_Lateral			R_Knee_Lateral			R_Knee_Medial			R_Patella			R_Shank_Superior			R_Shank_Inferior			R_Shank_Lateral			R_Ankle_Lateral			RankleMedial			R_Heel			R_Toe			R_Midfoot_Medial			R_Midfoot_Lateral			R_Hindfoot			R_Midfoot_Superior			R_ToeMedial			R_ToeLateral			L_Heel			L_Toe			L_Midfoot_Medial			L_Midfoot_Lateral			L_Hindfoot			L_Midfoot_Superior			L_ToeMedial			L_ToeLateral			Oglobal			Sacral			Xglobal			Yglobal			Zglobal			
		X1	Y1	Z1	X2	Y2	Z2	X3	Y3	Z3	X4	Y4	Z4	X5	Y5	Z5	X6	Y6	Z6	X7	Y7	Z7	X8	Y8	Z8	X9	Y9	Z9	X10	Y10	Z10	X11	Y11	Z11	X12	Y12	Z12	X13	Y13	Z13	X14	Y14	Z14	X15	Y15	Z15	X16	Y16	Z16	X17	Y17	Z17	X18	Y18	Z18	X19	Y19	Z19	X20	Y20	Z20	X21	Y21	Z21	X22	Y22	Z22	X23	Y23	Z23	X24	Y24	Z24	X25	Y25	Z25	X26	Y26	Z26	X27	Y27	Z27	X28	Y28	Z28	X29	Y29	Z29	X30	Y30	Z30	X31	Y31	Z31	X32	Y32	Z32	X33	Y33	Z33	X34	Y34	Z34	X35	Y35	Z35	X36	Y36	Z36	X37	Y37	Z37	X38	Y38	Z38	X39	Y39	Z39	X40	Y40	Z40	X41	Y41	Z41	X42	Y42	Z42	X43	Y43	Z43	X44	Y44	Z44	X45	Y45	Z45	X46	Y46	Z46	X47	Y47	Z47	X48	Y48	Z48	X49	Y49	Z49	X50	Y50	Z50	X51	Y51	Z51	X52	Y52	Z52	X53	Y53	Z53	X54	Y54	Z54	X55	Y55	Z55	X56	Y56	Z56	X57	Y57	Z57	X58	Y58	Z58	X59	Y59	Z59	X60	Y60	Z60	X61	Y61	Z61	X62	Y62	Z62	X63	Y63	Z63	X64	Y64	Z64	X65	Y65	Z65	X66	Y66	Z66	X67	Y67	Z67	X68	Y68	Z68	

47	2.808333	-958.455	1363.7	157.406	-1122.52	1443.29	175.909	-1009.28	1404.44	334.086	-1075.95	1400.52	-3.19957	-940.62	1196.56	169.029	-1208.37	1256.49	190.204	-1023.16	962.873	323.58	-1017.98	970.676	46.0948	-1222.41	1007.19	212.308	-1222.49	1003.58	135.422	-1222.01	1055.17	177.699	-1065.43	1102.89	456.775	-0	0	0	-0	0	0	-0	0	0	-995.229	832.963	441.087	-996.3200000000001	841.326	397.153	-1041.68	834.593	453.54	-1174.88	1076.96	-89.17829999999999	-0	0	0	-0	0	0	-0	0	0	-1158.36	808.799	-118.035	-1202.34	828.073	-114.339	-1139.27	822.13	-76.84869999999999	-1045.73	800.4450000000001	15.3215	-955.037	597.4299999999999	67.95269999999999	-934.0940000000001	694.029	83.999	-0	0	0	-0	0	0	-898.653	520.449	133.936	-964.121	445.593	58.6695	-1000.34	178.003	56.9638	-948.665	300.855	129.639	-0	0	0	-0	0	0	-1096.13	773.7190000000001	339.185	-1099.76	560.39	314.455	-1025.81	685.9349999999999	331.475	-0	0	0	-0	0	0	-1034.01	446.468	258.18	-1213.74	442.281	331.096	-1362.7	300.502	329.727	-1225.27	326.461	261.518	-0	0	0	-0	0	0	-1498.28	282.772	274.688	-1355.73	21.4293	307.314	-1410.44	72.32210000000001	246.185	-1424.94	90.2859	361.161	-1480.69	183.718	337.096	-1367.53	171.685	295.349	-1381.31	42.099	260.647	-1391.03	53.3264	349.509	-1079.53	61.9018	114.59	-780.816	56.9962	85.0239	-857.178	35.8029	146.926	-877.45	34.4729	34.2606	-982.3200000000001	27.4385	49.6106	-915.739	120.906	96.72280000000001	-814.699	37.5014	131.012	-822.353	40.0733	36.7266	-0	0	0	-1222.45	1005.39	173.865	-200	0	0	-0	0	200	-0	200	0	
48	2.816667	-950.277	1364.92	156.964	-1114.51	1444.59	174.797	-1001.89	1405.59	333.669	-1066.99	1401.41	-4.11682	-932.579	1197.75	168.548	-1200.43	1257.8	188.866	-1015.65	963.774	322.495	-1009.72	972.171	44.9526	-1214.59	1008.51	210.827	-1214.49	1004.96	133.716	-1214.06	1056.51	176.232	-1059.62	1103.78	455.796	-0	0	0	-0	0	0	-0	0	0	-990.6849999999999	833.085	439.127	-992.402	841.793	395.178	-1037.34	835.78	452.769	-1162.04	1076.84	-91.3691	-0	0	0	-0	0	0	-0	0	0	-1139.68	809.0309999999999	-119.459	-1184.65	827.683	-116.66	-1121.2	822.7190000000001	-77.8837	-1038.47	801.351	14.2224	-951.181	597.431	66.5937	-929.518	694.134	81.96429999999999	-0	0	0	-0	0	0	-894.904	520.0839999999999	132.94	-961.3819999999999	445.493	57.9687	-1000.01	178.392	56.8052	-946.727	300.723	128.809	-0	0	0	-0	0	0	-1090.1	776.313	345.914	-1084.23	561.758	313.889	-1013.42	688.437	331.081	-0	0	0	-0	0	0	-1016.92	448.544	257.946	-1196.66	444.972	330.284	-1347.3	304.944	327.475	-1208.53	329.642	260.585	-0	0	0	-0	0	0	-1483.09	287.19	269.362	-1339.68	27.5466	308.935	-1392.99	77.0668	246.006	-1410.68	96.42359999999999	360.307	-1466.49	189.147	333.506	-1351.98	177.261	294.997	-1364.81	47.0216	261.557	-1376.25	59.5106	350.201	-1079.55	61.7906	114.813	-780.853	56.8072	84.899	-857.164	35.5866	146.83	-877.597	34.2761	34.1936	-982.259	27.3502	49.6662	-915.702	120.741	96.7119	-814.683	37.3675	131.052	-822.371	39.9353	36.6997	-0	0	0	-1214.54	1006.73	172.271	-200	0	0	-0	0	200	-0	200	0	
49	2.825	-942.272	1366.05	156.708	-1106.4	1445.77	173.813	-994.428	1406.65	333.245	-1058.2	1402.55	-4.78724	-924.629	1198.96	168.138	-1192.54	1259.11	187.444	-1008.19	964.699	321.279	-1001.45	973.793	43.8825	-1206.83	1009.78	209.226	-1206.54	1006.29	132.015	-1206.18	1057.79	174.729	-1054.03	1104.66	455.307	-0	0	0	-0	0	0	-0	0	0	-986.256	833.583	437.549	-988.189	842.049	393.634	-1032.26	836.307	451.288	-1149.02	1076.77	-93.37730000000001	-0	0	0	-0	0	0	-0	0	0	-1120.62	809.352	-120.625	-1165.33	826.821	-118.045	-1102.81	823.6	-78.8948	-1034.04	803.127	13.3418	-947.475	597.811	65.2514	-924.538	694.123	80.34699999999999	-0	0	0	-0	0	0	-890.545	519.779	132.132	-958.287	445.2	57.3037	-999.016	178.327	56.5858	-944.961	300.51	128.407	-0	0	0	-0	0	0	-1081.02	778.037	345.342	-1068.91	563.167	313.783	-1001.19	691.165	330.885	-0	0	0	-0	0	0	-1000.15	451.037	258.035	-1180.04	447.621	329.704	-1331.58	308.792	325.165	-1191.28	333.018	259.871	-0	0	0	-0	0	0	-1467.79	289.901	264.106	-1320.62	33.4299	310.821	-1373.91	80.86450000000001	246.574	-1393.74	102.288	360.153	-1451.37	193.337	330.958	-1335.39	182.769	294.075	-1344.66	51.6459	262.408	-1358.74	65.4171	350.983	-1079.51	61.757	114.905	-781.301	57.0242	84.9997	-857.088	35.3848	146.552	-877.681	34.3135	33.943	-982.427	27.3878	49.5773	-915.665	120.665	96.69240000000001	-814.7089999999999	37.2712	131.133	-822.408	39.7749	36.6603	-0	0	0	-1206.69	1008.04	170.62	-200	0	0	-0	0	200	-0	200	0	
50	2.833333	-934.314	1367.27	156.466	-1098.47	1447.16	172.91	-987.135	1407.71	332.776	-1049.27	1403.49	-5.52842	-916.755	1200.13	167.909	-1184.84	1260.45	186.131	-1000.57	966.078	319.808	-993.066	975.198	42.5265	-1199.01	1010.95	207.299	-1198.43	1007.63	130.042	-1198.22	1059.03	172.759	-1048.29	1105.44	454.057	-0	0	0	-0	0	0	-0	0	0	-981.505	833.7910000000001	435.808	-983.971	842.59	392.455	-1027.57	837.16	450.257	-1136.02	1076.81	-95.4897	-0	0	0	-0	0	0	-0	0	0	-1100.95	809.694	-121.474	-1146.39	826.489	-119.786	-1084.43	824.7619999999999	-79.69070000000001	-1029.91	804.619	11.7476	-946.3579999999999	598.228	64.64239999999999	-919.422	694.183	79.29649999999999	-0	0	0	-0	0	0	-885.408	518.558	128.731	-955.314	444.719	56.3894	-998.239	178.171	56.1134	-943.765	300.282	127.885	-0	0	0	-0	0	0	-1071.08	779.746	342.891	-1053.94	564.818	314.16	-989.241	694.153	330.926	-0	0	0	-0	0	0	-982.655	453.757	258.954	-1163.73	450.323	328.991	-1315.48	311.766	322.703	-1173.28	336.241	258.764	-0	0	0	-0	0	0	-1451.78	291.194	259.184	-1300.55	38.2262	312.001	-1353.71	83.75069999999999	246.362	-1375.27	106.736	359.319	-1434.6	196.158	327.982	-1317.5	187.031	292.562	-1323.8	54.7658	263.117	-1340.06	70.4389	351.276	-1079.55	61.8111	114.796	-781.298	56.8554	85.03619999999999	-857.1660000000001	35.2711	146.523	-877.727	34.1551	33.9084	-982.538	27.416	49.6089	-915.598	120.594	96.59269999999999	-814.6609999999999	37.1954	131	-822.345	39.5659	36.6237	-0	0	0	-1198.72	1009.29	168.67	-200	0	0	-0	0	200	-0	200	0	
51	2.841667	-926.333	1368.47	156.209	-1090.61	1448.48	172.141	-980.019	1408.71	332.516	-1040.63	1404.79	-6.3807	-909.131	1201.15	167.823	-1177.07	1261.85	184.641	-993.4299999999999	966.828	318.766	-985.8099999999999	976.659	41.6334	-1191.72	1012.4	206.296	-1191.35	1009.04	128.743	-1190.9	1060.43	171.946	-1042.48	1106.13	452.728	-0	0	0	-0	0	0	-0	0	0	-976.774	834.134	434.969	-979.575	842.847	391.197	-1022.76	837.982	449.457	-1122.85	1077	-97.4419	-0	0	0	-0	0	0	-0	0	0	-1081.54	810.419	-122.077	-1127.07	826.605	-121.099	-1065.51	826.037	-80.10550000000001	-1024.65	805.818	10.2684	-940.289	597.954	62.9511	-914.314	694.448	78.437	-0	0	0	-0	0	0	-881.78	517.711	127.173	-951.827	443.935	55.7794	-997.347	177.887	55.678	-942.8390000000001	299.874	127.741	-0	0	0	-0	0	0	-1061.68	781.4349999999999	342.243	-1039.18	567.014	314.472	-977.362	697.602	331.04	-0	0	0	-0	0	0	-965.562	457.062	259.825	-1147.42	452.76	328.092	-1298.05	313.362	319.944	-1155.71	338.945	257.726	-0	0	0	-0	0	0	-1434.59	291.36	254.949	-1279.77	41.6259	312.438	-1331.96	85.92740000000001	245.979	-1355.45	109.838	358.357	-1416.62	197.538	325.296	-1298.29	190.325	291.395	-1303.39	56.7378	262.744	-1320.45	73.7055	350.982	-1079.57	61.911	114.681	-781.028	56.2948	85.61709999999999	-857.207	35.0504	146.311	-877.806	34.0728	33.702	-982.77	27.4501	49.4848	-915.501	120.514	96.47920000000001	-814.58	37.0625	130.901	-822.356	39.3471	36.5853	-0	0	0	-1191.54	1010.72	167.519	-200	0	0	-0	0	200	-0	200	0	
52	2.85	-918.158	1369.85	156.04	-1082.68	1449.79	171.33	-972.812	1409.62	332.282	-1031.89	1405.87	-7.02358	-900.869	1202.63	167.947	-1169.41	1263.29	183.372	-986.1609999999999	968.085	317.498	-978.096	978.0410000000001	40.7466	-1184.36	1013.72	204.88	-1183.89	1010.43	127.245	-1183.39	1061.77	170.581	-1036.87	1106.9	451.621	-0	0	0	-0	0	0	-0	0	0	-972.1	834.405	433.848	-974.369	843.645	390.026	-1017.97	838.783	448.876	-1109.44	1077.02	-99.23869999999999	-0	0	0	-0	0	0	-0	0	0	-1061.57	811.492	-122.554	-1108.15	826.914	-122.358	-1046.73	827.609	-80.13039999999999	-1018.57	806.4349999999999	8.96721	-935.221	598.128	62.3169	-908.117	694.62	77.1455	-0	0	0	-0	0	0	-879.341	516.903	125.865	-948.497	443.054	55.3622	-996.335	177.356	55.4493	-941.954	299.574	127.697	-0	0	0	-0	0	0	-1051.49	782.504	341.778	-1024.32	569.362	314.569	-966.976	700.78	331.202	-0	0	0	-0	0	0	-948.559	460.777	260.81	-1130.89	454.804	327.313	-1280.54	314.481	317.83	-1137.92	341.502	256.489	-0	0	0	-0	0	0	-1416.58	290.668	251.412	-1258.99	43.2781	312.171	-1312.05	86.099	244.978	-1336.42	110.847	356.987	-1398.04	197.709	322.671	-1279.99	191.506	289.494	-1282.65	57.7608	262.215	-1300.38	75.28060000000001	350.348	-1079.66	62.1198	114.513	-780.925	56.0468	85.5253	-857.3440000000001	34.9979	146.279	-877.886	33.9566	33.6599	-982.865	27.5564	49.4515	-915.496	120.499	96.3477	-814.5839999999999	36.9383	130.997	-822.299	39.1415	36.582	-0	0	0	-1184.13	1012.08	166.063	-200	0	0	-0	0	200	-0	200	0	
53	2.858333	-910.462	1370.97	156.054	-1074.79	1451.06	170.496	-965.807	1410.64	331.982	-1023.04	1407.07	-7.53883	-893.425	1203.84	167.694	-1161.7	1264.63	181.939	-979.024	969.463	316.341	-970.266	979.674	39.7502	-1177	1015.06	203.317	-1176.36	1011.85	125.614	-1175.95	1063.13	169.073	-1030.87	1107.65	450.266	-0	0	0	-0	0	0	-0	0	0	-967.479	834.941	432.988	-969.287	844.053	389.404	-1013.14	839.723	447.861	-1095.83	1077.18	-100.856	-0	0	0	-0	0	0	-0	0	0	-1041.43	812.753	-122.814	-1088.12	826.939	-123.037	-1027.41	829.506	-80.33750000000001	-1012.09	807.349	7.88104	-931.027	598.263	61.462	-903.3819999999999	694.683	77.17610000000001	-0	0	0	-0	0	0	-877.341	516.143	124.501	-945.715	442.569	54.9514	-995.402	176.903	55.1971	-941.086	299.122	127.604	-0	0	0	-0	0	0	-1041.52	783.83	341.224	-1009.84	571.763	315.395	-954.904	704.975	331.723	-0	0	0	-0	0	0	-931.644	464.739	261.908	-1114.46	456.603	326.856	-1262.39	314.715	316.099	-1120.2	343.372	255.519	-0	0	0	-0	0	0	-1397.68	289.155	248.418	-1237.77	44.1426	311.59	-1290.2	86.0825	243.374	-1316.5	110.411	355.037	-1378.85	196.5	319.824	-1260.27	191.908	288.386	-1260.89	58.0277	261.623	-1279.84	75.4919	349.248	-1079.6	62.1314	114.459	-780.9059999999999	55.8621	85.423	-857.202	34.9027	145.499	-878.053	34.3311	32.9332	-983.332	27.9382	49.1914	-915.567	120.582	96.0941	-814.405	36.8746	131.041	-822.336	39.0147	36.5662	-0	0	0	-1176.68	1013.45	164.465	-200	0	0	-0	0	200	-0	200	0	
